<svg xmlns="http://www.w3.org/2000/svg" viewBox="0 0 100 100">
  <circle cx="50" cy="50" r="45" fill="#0B3D2E"/>
  <path d="M50 25c-13.255 0-25 11.745-25 25s11.745 25 25 25 25-11.745 25-25-11.745-25-25-25z" fill="none" stroke="#C6A45C" stroke-width="3"/>
  <path d="M40 45l-10-15M50 30l-10-5M60 45l10-15M50 70l10 15M40 55l-5 10M60 55l5 10" stroke="#C6A45C" stroke-width="2" stroke-linecap="round"/>
  <circle cx="50" cy="50" r="8" fill="#C6A45C"/>
  <path d="M50 42v-5M50 63v-5M42 50h-5M63 50h-5" stroke="#C6A45C" stroke-width="2" stroke-linecap="round"/>
  <text x="50" y="80" font-family="Georgia" font-size="12" fill="#C6A45C" text-anchor="middle">&</text>
</svg>